<?xml version="1.0"?>
<svg xmlns="http://www.w3.org/2000/svg" xmlns:xlink="http://www.w3.org/1999/xlink" xmlns:svgjs="http://svgjs.com/svgjs" version="1.1" width="512" height="512" x="0" y="0" viewBox="0 0 96 96" style="enable-background:new 0 0 512 512" xml:space="preserve" class=""><g><g xmlns="http://www.w3.org/2000/svg" id="_26-royalty_customer" data-name="26-royalty customer"><g id="Glyph"><circle cx="48" cy="20" r="20" fill="#00515a" data-original="#000000" style="" class=""/><path d="m42.633 80.684c-3.458-6.919-1.4-16.322 4.7-21.406a15.659 15.659 0 0 1 10.036-3.578 21.452 21.452 0 0 1 10.631 3.119 23.176 23.176 0 0 1 8-2.919v-3.9a12.013 12.013 0 0 0 -12-12h-32a12.013 12.013 0 0 0 -12 12v32a4 4 0 0 0 4 4h24.5a26.934 26.934 0 0 1 -5.867-7.316z" fill="#00515a" data-original="#000000" style="" class=""/><path d="m86.108 62.349c-2.266-1.893-8.451-5.417-18.108 1.19-9.659-6.608-15.843-3.081-18.108-1.19-4.651 3.881-6.3 11.3-3.681 16.546 4.2 8.4 20.209 16.547 20.888 16.89a2 2 0 0 0 1.8 0c.679-.343 16.688-8.491 20.888-16.89 2.623-5.243.972-12.665-3.679-16.546zm-6.108 13.651a4 4 0 1 1 4-4 4 4 0 0 1 -4 4z" fill="#00515a" data-original="#000000" style="" class=""/></g></g></g></svg>
