<svg height="512" viewBox="0 0 512 512" width="512" xmlns="http://www.w3.org/2000/svg" xmlns:xlink="http://www.w3.org/1999/xlink"><linearGradient id="New_Gradient_Swatch_2" gradientUnits="userSpaceOnUse" x1="165.172" x2="165.172" y1="83.557" y2="430.751"><stop offset="0" stop-color="#fc5c7d"/><stop offset=".129" stop-color="#f35e85"/><stop offset=".343" stop-color="#d9659b"/><stop offset=".616" stop-color="#b070bf"/><stop offset=".934" stop-color="#777ff0"/><stop offset="1" stop-color="#6a82fb"/></linearGradient><linearGradient id="New_Gradient_Swatch_2-2" x1="352" x2="352" xlink:href="#New_Gradient_Swatch_2" y1="83.557" y2="430.751"/><linearGradient id="New_Gradient_Swatch_2-3" x1="448" x2="448" xlink:href="#New_Gradient_Swatch_2" y1="83.557" y2="430.751"/><linearGradient id="New_Gradient_Swatch_2-6" x1="200" x2="200" xlink:href="#New_Gradient_Swatch_2" y1="83.557" y2="430.751"/><linearGradient id="New_Gradient_Swatch_2-7" x1="152" x2="152" xlink:href="#New_Gradient_Swatch_2" y1="83.557" y2="430.751"/><linearGradient id="New_Gradient_Swatch_2-8" x1="248" x2="248" xlink:href="#New_Gradient_Swatch_2" y1="83.557" y2="430.751"/><linearGradient id="New_Gradient_Swatch_2-9" x1="168" x2="168" xlink:href="#New_Gradient_Swatch_2" y1="83.557" y2="430.751"/><linearGradient id="New_Gradient_Swatch_2-10" x1="236" x2="236" xlink:href="#New_Gradient_Swatch_2" y1="83.557" y2="430.751"/><linearGradient id="New_Gradient_Swatch_2-11" x1="208" x2="208" xlink:href="#New_Gradient_Swatch_2" y1="83.557" y2="430.751"/><linearGradient id="New_Gradient_Swatch_2-13" x1="196" x2="196" xlink:href="#New_Gradient_Swatch_2" y1="83.557" y2="430.751"/><linearGradient id="New_Gradient_Swatch_2-14" x1="184" x2="184" xlink:href="#New_Gradient_Swatch_2" y1="83.557" y2="430.751"/><linearGradient id="New_Gradient_Swatch_2-15" x1="280" x2="280" xlink:href="#New_Gradient_Swatch_2" y1="83.557" y2="430.751"/><g id="GD001"><path d="m312 176h-224a8 8 0 0 0 -8 8v112h-24a32.036 32.036 0 0 0 -32 32v68.687l-13.657 13.656 11.314 11.314 16-16a8 8 0 0 0 2.343-5.657v-72a16.019 16.019 0 0 1 16-16h24v20.686l-13.657 13.657 11.314 11.314 36-36a8.97 8.97 0 1 1 12.686 12.686l-36 36a8 8 0 0 0 0 11.314 37.254 37.254 0 0 1 0 52.686l-40 40 11.314 11.314 18.343-18.343v20.686a8 8 0 0 0 8 8h224a8 8 0 0 0 8-8v-304a8 8 0 0 0 -8-8zm-8 304h-208v-28.686l5.657-5.657a53.282 53.282 0 0 0 5.238-69.238l30.762-30.762a24.971 24.971 0 0 0 -35.314-35.314l-6.343 6.343v-124.686h208z" fill="url(#New_Gradient_Swatch_2)"/><path d="m496 72v-32a8 8 0 0 0 -8-8h-272a8 8 0 0 0 -8 8v32a8 8 0 0 0 8 8v48h16v-48h64v48a8 8 0 0 0 8 8h96a8 8 0 0 0 8-8v-48h64v96h-136v16h56v16h-56v16h56v40h-56v16h64a8 8 0 0 0 8-8v-48h64v96h-136v16h56v16h-56v16h56v40h-56v16h64a8 8 0 0 0 8-8v-48h64v96h-136v16h144a8 8 0 0 0 8-8v-104a8 8 0 0 0 8-8v-32a8 8 0 0 0 -8-8v-96a8 8 0 0 0 8-8v-32a8 8 0 0 0 -8-8v-96a8 8 0 0 0 8-8zm-88 264h72v16h-72zm0-144h72v16h-72zm-16-144v16h-80v-16zm-168 16v-16h72v16zm168 56h-80v-40h80zm16-72h72v16h-72z" fill="url(#New_Gradient_Swatch_2-2)"/><g fill="url(#New_Gradient_Swatch_2-3)"><path d="m440 432h16v16h-16z"/><path d="m440 288h16v16h-16z"/><path d="m440 144h16v16h-16z"/></g><path d="m192 302.955v9.045h16v-9.045a22.834 22.834 0 0 0 3.378-42.21l-15.6-7.8a6.833 6.833 0 0 1 3.055-12.945h2.334a6.84 6.84 0 0 1 6.833 6.833v1.167h16v-1.167a22.874 22.874 0 0 0 -16-21.788v-9.045h-16v9.045a22.834 22.834 0 0 0 -3.378 42.21l15.6 7.8a6.833 6.833 0 0 1 -3.055 12.945h-2.334a6.84 6.84 0 0 1 -6.833-6.833v-1.167h-16v1.167a22.874 22.874 0 0 0 16 21.788z" fill="url(#New_Gradient_Swatch_2-6)"/><path d="m144 256h16v16h-16z" fill="url(#New_Gradient_Swatch_2-7)"/><path d="m240 256h16v16h-16z" fill="url(#New_Gradient_Swatch_2-8)"/><path d="m160 336h16v16h-16z" fill="url(#New_Gradient_Swatch_2-9)"/><path d="m192 336h88v16h-88z" fill="url(#New_Gradient_Swatch_2-10)"/><path d="m136 368h144v16h-144z" fill="url(#New_Gradient_Swatch_2-11)"/><path d="m136 400h144v16h-144z" fill="url(#New_Gradient_Swatch_2-11)"/><path d="m136 432h120v16h-120z" fill="url(#New_Gradient_Swatch_2-13)"/><path d="m112 144h144v16h-144z" fill="url(#New_Gradient_Swatch_2-14)"/><path d="m272 144h16v16h-16z" fill="url(#New_Gradient_Swatch_2-15)"/></g></svg>